<svg width="375" height="320" viewBox="0 0 375 320" fill="none" xmlns="http://www.w3.org/2000/svg">
<path opacity="0.2" d="M411.583 126.906C411.583 126.906 380.307 75.9789 315.029 56.2372C249.742 36.4956 219.573 53.7376 186.124 72.391C159.797 87.074 139.181 108.346 117.616 127.169C97.8686 144.403 68.9244 157.768 59.7867 181.633C48.2287 211.824 74.407 244.446 105.465 261.977C148.812 286.438 190.836 271.474 236.1 265.727C236.188 265.718 236.267 265.701 236.356 265.693C242.896 264.877 249.515 264.315 256.212 264.332C308.786 264.426 346.512 296.376 384.812 263.482C423.101 230.596 429.196 166.542 411.583 126.906Z" fill="#F9A94B"/>
<path opacity="0.2" d="M312.941 120.859C312.941 120.859 281.281 60.9927 215.201 37.786C149.111 14.5792 118.571 34.8476 84.7109 56.7751C58.0609 74.0353 37.1909 99.041 15.3609 121.168C-4.62907 141.427 -33.9291 157.138 -43.1791 185.192C-54.8791 220.682 -28.3791 259.03 3.06092 279.638C46.9409 308.392 89.4809 290.802 135.301 284.046C135.391 284.036 135.471 284.016 135.561 284.006C142.181 283.046 148.881 282.386 155.661 282.406C208.881 282.516 247.071 320.075 285.841 281.407C324.601 242.749 330.771 167.452 312.941 120.859Z" fill="#F9A94B"/>
<path d="M374.1 188.498H343.19V123.315H345.25V116.559H272.82V123.315H275.33V220.25H256.33V12.2787H191.19V169.559H167.37V152.149H173.61V144.783H121.52V39.2633H124.89V33.7465H61.67V39.2633H66.2V144.963H16.24V220.55H-10M197.33 17.1859V263.795M205.22 17.1859V263.795M213.11 17.1859V263.795M221 17.1859V263.795M228.89 17.1859V263.795M236.78 17.1859V263.795M244.68 17.1859V263.795M252.57 17.1859V263.795M47.85 136.628H56.01V144.843H47.85V136.628ZM39.03 141.595H42.34V144.833H39.03V141.595ZM188.29 10H258.93V12.2587H188.29V10ZM71.86 45.3998H79.82V53.915H71.86V45.3998ZM83.53 45.3998H91.49V53.915H83.53V45.3998ZM95.2 45.3998H103.16V53.915H95.2V45.3998ZM106.87 45.3998H114.83V53.915H106.87V45.3998ZM71.86 58.9021H79.82V67.4173H71.86V58.9021ZM83.53 58.9021H91.49V67.4173H83.53V58.9021ZM95.2 58.9021H103.16V67.4173H95.2V58.9021ZM106.87 58.9021H114.83V67.4173H106.87V58.9021ZM71.86 72.3944H79.82V80.9096H71.86V72.3944ZM83.53 72.3944H91.49V80.9096H83.53V72.3944ZM95.2 72.3944H103.16V80.9096H95.2V72.3944ZM106.87 72.3944H114.83V80.9096H106.87V72.3944ZM71.86 85.8867H79.82V94.4019H71.86V85.8867ZM83.53 85.8867H91.49V94.4019H83.53V85.8867ZM95.2 85.8867H103.16V94.4019H95.2V85.8867ZM106.87 85.8867H114.83V94.4019H106.87V85.8867ZM71.86 99.389H79.82V107.904H71.86V99.389ZM83.53 99.389H91.49V107.904H83.53V99.389ZM95.2 99.389H103.16V107.904H95.2V99.389ZM106.87 99.389H114.83V107.904H106.87V99.389ZM71.86 112.881H79.82V121.396H71.86V112.881ZM83.53 112.881H91.49V121.396H83.53V112.881ZM95.2 112.881H103.16V121.396H95.2V112.881ZM106.87 112.881H114.83V121.396H106.87V112.881ZM71.86 126.384H79.82V134.899H71.86V126.384ZM83.53 126.384H91.49V134.899H83.53V126.384ZM95.2 126.384H103.16V134.899H95.2V126.384ZM106.87 126.384H114.83V134.899H106.87V126.384ZM71.86 139.876H79.82V148.391H71.86V139.876ZM83.53 139.876H91.49V148.391H83.53V139.876ZM95.2 139.876H103.16V148.391H95.2V139.876ZM106.87 139.876H114.83V148.391H106.87V139.876ZM71.86 152.219H79.82V160.734H71.86V152.219ZM83.53 152.219H91.49V160.734H83.53V152.219ZM95.2 152.219H103.16V160.734H95.2V152.219ZM106.87 152.219H114.83V160.734H106.87V152.219ZM71.86 165.721H79.82V174.236H71.86V165.721ZM83.53 165.721H91.49V174.236H83.53V165.721ZM95.2 165.721H103.16V174.236H95.2V165.721ZM106.87 165.721H114.83V174.236H106.87V165.721ZM71.86 179.213H79.82V187.729H71.86V179.213ZM83.53 179.213H91.49V187.729H83.53V179.213ZM95.2 179.213H103.16V187.729H95.2V179.213ZM106.87 179.213H114.83V187.729H106.87V179.213ZM71.86 192.706H79.82V201.221H71.86V192.706ZM83.53 192.706H91.49V201.221H83.53V192.706ZM95.2 192.706H103.16V201.221H95.2V192.706ZM106.87 192.706H114.83V201.221H106.87V192.706ZM71.86 206.208H79.82V214.723H71.86V206.208ZM83.53 206.208H91.49V214.723H83.53V206.208ZM95.2 206.208H103.16V214.723H95.2V206.208ZM106.87 206.208H114.83V214.723H106.87V206.208ZM71.86 219.7H79.82V228.216H71.86V219.7ZM83.53 219.7H91.49V228.216H83.53V219.7ZM95.2 219.7H103.16V228.216H95.2V219.7ZM106.87 219.7H114.83V228.216H106.87V219.7ZM71.86 233.203H79.82V241.718H71.86V233.203ZM83.53 233.203H91.49V241.718H83.53V233.203ZM95.2 233.203H103.16V241.718H95.2V233.203ZM106.87 233.203H114.83V241.718H106.87V233.203ZM71.86 246.695H79.82V255.21H71.86V246.695ZM83.53 246.695H91.49V255.21H83.53V246.695ZM95.2 246.695H103.16V255.21H95.2V246.695ZM106.87 246.695H114.83V255.21H106.87V246.695ZM117.44 152.219H125.4V160.734H117.44V152.219ZM129.11 152.219H137.07V160.734H129.11V152.219ZM140.78 152.219H148.74V160.734H140.78V152.219ZM152.45 152.219H160.41V160.734H152.45V152.219ZM117.44 165.721H125.4V174.236H117.44V165.721ZM129.11 165.721H137.07V174.236H129.11V165.721ZM140.78 165.721H148.74V174.236H140.78V165.721ZM152.45 165.721H160.41V174.236H152.45V165.721ZM117.44 179.213H125.4V187.729H117.44V179.213ZM129.11 179.213H137.07V187.729H129.11V179.213ZM140.78 179.213H148.74V187.729H140.78V179.213ZM152.45 179.213H160.41V187.729H152.45V179.213ZM117.44 192.706H125.4V201.221H117.44V192.706ZM129.11 192.706H137.07V201.221H129.11V192.706ZM140.78 192.706H148.74V201.221H140.78V192.706ZM152.45 192.706H160.41V201.221H152.45V192.706ZM117.44 206.208H125.4V214.723H117.44V206.208ZM129.11 206.208H137.07V214.723H129.11V206.208ZM140.78 206.208H148.74V214.723H140.78V206.208ZM152.45 206.208H160.41V214.723H152.45V206.208ZM117.44 219.7H125.4V228.216H117.44V219.7ZM129.11 219.7H137.07V228.216H129.11V219.7ZM140.78 219.7H148.74V228.216H140.78V219.7ZM152.45 219.7H160.41V228.216H152.45V219.7ZM117.44 233.203H125.4V241.718H117.44V233.203ZM129.11 233.203H137.07V241.718H129.11V233.203ZM140.78 233.203H148.74V241.718H140.78V233.203ZM152.45 233.203H160.41V241.718H152.45V233.203ZM117.44 246.695H125.4V255.21H117.44V246.695ZM129.11 246.695H137.07V255.21H129.11V246.695ZM140.78 246.695H148.74V255.21H140.78V246.695ZM152.45 246.695H160.41V255.21H152.45V246.695ZM25.64 152.219H33.6V160.734H25.64V152.219ZM37.31 152.219H45.27V160.734H37.31V152.219ZM48.98 152.219H56.94V160.734H48.98V152.219ZM60.65 152.219H68.61V160.734H60.65V152.219ZM25.64 165.721H33.6V174.236H25.64V165.721ZM37.31 165.721H45.27V174.236H37.31V165.721ZM48.98 165.721H56.94V174.236H48.98V165.721ZM60.65 165.721H68.61V174.236H60.65V165.721ZM25.64 179.213H33.6V187.729H25.64V179.213ZM37.31 179.213H45.27V187.729H37.31V179.213ZM48.98 179.213H56.94V187.729H48.98V179.213ZM60.65 179.213H68.61V187.729H60.65V179.213ZM25.64 192.706H33.6V201.221H25.64V192.706ZM37.31 192.706H45.27V201.221H37.31V192.706ZM48.98 192.706H56.94V201.221H48.98V192.706ZM60.65 192.706H68.61V201.221H60.65V192.706ZM25.64 206.208H33.6V214.723H25.64V206.208ZM37.31 206.208H45.27V214.723H37.31V206.208ZM48.98 206.208H56.94V214.723H48.98V206.208ZM60.65 206.208H68.61V214.723H60.65V206.208ZM25.64 219.7H33.6V228.216H25.64V219.7ZM37.31 219.7H45.27V228.216H37.31V219.7ZM48.98 219.7H56.94V228.216H48.98V219.7ZM60.65 219.7H68.61V228.216H60.65V219.7ZM25.64 233.203H33.6V241.718H25.64V233.203ZM37.31 233.203H45.27V241.718H37.31V233.203ZM48.98 233.203H56.94V241.718H48.98V233.203ZM60.65 233.203H68.61V241.718H60.65V233.203ZM25.64 246.695H33.6V255.21H25.64V246.695ZM37.31 246.695H45.27V255.21H37.31V246.695ZM48.98 246.695H56.94V255.21H48.98V246.695ZM60.65 246.695H68.61V255.21H60.65V246.695ZM286.33 125.764H294.29V134.279H286.33V125.764ZM298 125.764H305.96V134.279H298V125.764ZM309.67 125.764H317.63V134.279H309.67V125.764ZM321.34 125.764H329.3V134.279H321.34V125.764ZM286.33 139.266H294.29V147.781H286.33V139.266ZM298 139.266H305.96V147.781H298V139.266ZM309.67 139.266H317.63V147.781H309.67V139.266ZM321.34 139.266H329.3V147.781H321.34V139.266ZM286.33 152.759H294.29V161.274H286.33V152.759ZM298 152.759H305.96V161.274H298V152.759ZM309.67 152.759H317.63V161.274H309.67V152.759ZM321.34 152.759H329.3V161.274H321.34V152.759ZM286.33 166.251H294.29V174.766H286.33V166.251ZM298 166.251H305.96V174.766H298V166.251ZM309.67 166.251H317.63V174.766H309.67V166.251ZM321.34 166.251H329.3V174.766H321.34V166.251ZM286.33 179.753H294.29V188.268H286.33V179.753ZM298 179.753H305.96V188.268H298V179.753ZM309.67 179.753H317.63V188.268H309.67V179.753ZM321.34 179.753H329.3V188.268H321.34V179.753ZM286.33 193.245H294.29V201.761H286.33V193.245ZM298 193.245H305.96V201.761H298V193.245ZM309.67 193.245H317.63V201.761H309.67V193.245ZM321.34 193.245H329.3V201.761H321.34V193.245ZM286.33 206.748H294.29V215.263H286.33V206.748ZM298 206.748H305.96V215.263H298V206.748ZM309.67 206.748H317.63V215.263H309.67V206.748ZM321.34 206.748H329.3V215.263H321.34V206.748ZM286.33 220.24H294.29V228.755H286.33V220.24ZM298 220.24H305.96V228.755H298V220.24ZM309.67 220.24H317.63V228.755H309.67V220.24ZM321.34 220.24H329.3V228.755H321.34V220.24ZM30.98 259.498H172.48V267.473H30.98V259.498ZM259.32 259.498H386.38V267.473H259.32V259.498Z" stroke="#464D5D" stroke-miterlimit="10"/>
<path d="M247.45 259.188C247.45 259.188 261.32 260.557 268.35 269.152C268.35 269.152 275.78 259.198 289.12 259.398C292.99 254.73 295.32 248.744 295.32 242.218C295.33 227.336 283.26 215.273 268.37 215.263C253.48 215.253 241.41 227.316 241.4 242.198C241.4 248.644 243.66 254.571 247.45 259.208V259.188Z" fill="#7DDFC3"/>
<path d="M267.89 217.162L267.42 286.652H269.76L267.89 217.162Z" fill="#263238"/>
<path d="M268.59 266.534C268.59 266.534 273.27 258.108 281.7 255.54C281.7 255.54 272.8 257.649 268.36 264.895L268.59 266.534Z" fill="#263238"/>
<path d="M268.59 242.667C268.59 242.667 273.27 234.242 281.7 231.674C281.7 231.674 272.8 233.782 268.36 241.028L268.59 242.667Z" fill="#263238"/>
<path d="M268.59 254.601C268.59 254.601 273.27 246.175 281.7 243.607C281.7 243.607 272.8 245.716 268.36 252.961L268.59 254.601Z" fill="#263238"/>
<path d="M267.9 248.754C267.9 248.754 263.38 240.329 255.25 237.76C255.25 237.76 263.83 239.869 268.13 247.115L267.9 248.754Z" fill="#263238"/>
<path d="M267.9 260.447C267.9 260.447 263.38 252.022 255.25 249.453C255.25 249.453 263.83 251.562 268.13 258.808L267.9 260.447Z" fill="#263238"/>
<path d="M312.78 253.921C312.78 253.921 329.31 255.56 337.69 265.794C337.69 265.794 346.54 253.931 362.44 254.171C367.05 248.614 369.83 241.478 369.83 233.692C369.84 215.963 355.46 201.581 337.71 201.571C319.97 201.561 305.57 215.933 305.57 233.672C305.57 241.358 308.27 248.414 312.78 253.951V253.921Z" fill="#7DDFC3"/>
<path d="M337.14 203.839L336.58 286.652H339.37L337.14 203.839Z" fill="#263238"/>
<path d="M337.98 262.676C337.98 262.676 343.56 252.642 353.6 249.573C353.6 249.573 343 252.082 337.7 260.727L337.98 262.676Z" fill="#263238"/>
<path d="M337.98 234.232C337.98 234.232 343.56 224.198 353.6 221.13C353.6 221.13 343 223.638 337.7 232.283L337.98 234.232Z" fill="#263238"/>
<path d="M337.98 248.454C337.98 248.454 343.56 238.42 353.6 235.351C353.6 235.351 343 237.86 337.7 246.505L337.98 248.454Z" fill="#263238"/>
<path d="M337.15 241.478C337.15 241.478 331.77 231.444 322.07 228.375C322.07 228.375 332.3 230.884 337.42 239.529L337.15 241.478Z" fill="#263238"/>
<path d="M337.15 255.42C337.15 255.42 331.77 245.386 322.07 242.318C322.07 242.318 332.3 244.826 337.42 253.471L337.15 255.42Z" fill="#263238"/>
<path d="M379.32 263.485C379.32 263.485 391.02 264.645 396.95 271.891C396.95 271.891 403.22 263.495 414.47 263.665C417.74 259.728 419.7 254.68 419.7 249.174C419.7 236.621 409.53 226.437 396.96 226.437C384.4 226.437 374.21 236.601 374.21 249.164C374.21 254.601 376.12 259.598 379.31 263.515L379.32 263.485Z" fill="#7DDFC3"/>
<path d="M5.92 259.188C5.92 259.188 19.79 260.557 26.82 269.152C26.82 269.152 34.25 259.198 47.59 259.398C51.46 254.73 53.79 248.744 53.79 242.218C53.8 227.336 41.73 215.273 26.84 215.263C11.95 215.253 -0.120005 227.316 -0.130005 242.198C-0.130005 248.644 2.14 254.571 5.92 259.208V259.188Z" fill="#7DDFC3"/>
<path d="M26.36 217.162L25.89 286.652H28.23L26.36 217.162Z" fill="#263238"/>
<path d="M27.06 266.534C27.06 266.534 31.74 258.108 40.17 255.54C40.17 255.54 31.27 257.649 26.83 264.895L27.06 266.534Z" fill="#263238"/>
<path d="M27.06 242.667C27.06 242.667 31.74 234.242 40.17 231.674C40.17 231.674 31.27 233.782 26.83 241.028L27.06 242.667Z" fill="#263238"/>
<path d="M27.06 254.601C27.06 254.601 31.74 246.175 40.17 243.607C40.17 243.607 31.27 245.716 26.83 252.961L27.06 254.601Z" fill="#263238"/>
<path d="M26.37 248.754C26.37 248.754 21.85 240.329 13.72 237.76C13.72 237.76 22.3 239.869 26.6 247.115L26.37 248.754Z" fill="#263238"/>
<path d="M26.37 260.447C26.37 260.447 21.85 252.022 13.72 249.453C13.72 249.453 22.3 251.562 26.6 258.808L26.37 260.447Z" fill="#263238"/>
<path d="M71.25 253.921C71.25 253.921 87.78 255.56 96.16 265.794C96.16 265.794 105.01 253.931 120.91 254.171C125.52 248.614 128.3 241.478 128.3 233.692C128.31 215.963 113.93 201.581 96.18 201.571C78.44 201.561 64.04 215.933 64.04 233.672C64.04 241.358 66.74 248.414 71.25 253.951V253.921Z" fill="#7DDFC3"/>
<path d="M95.61 203.839L95.05 286.652H97.84L95.61 203.839Z" fill="#263238"/>
<path d="M96.44 262.676C96.44 262.676 102.02 252.642 112.06 249.573C112.06 249.573 101.46 252.082 96.16 260.727L96.44 262.676Z" fill="#263238"/>
<path d="M96.44 234.232C96.44 234.232 102.02 224.198 112.06 221.13C112.06 221.13 101.46 223.638 96.16 232.283L96.44 234.232Z" fill="#263238"/>
<path d="M96.44 248.454C96.44 248.454 102.02 238.42 112.06 235.351C112.06 235.351 101.46 237.86 96.16 246.505L96.44 248.454Z" fill="#263238"/>
<path d="M95.62 241.478C95.62 241.478 90.24 231.444 80.54 228.375C80.54 228.375 90.77 230.884 95.89 239.529L95.62 241.478Z" fill="#263238"/>
<path d="M95.62 255.42C95.62 255.42 90.24 245.386 80.54 242.318C80.54 242.318 90.77 244.826 95.89 253.471L95.62 255.42Z" fill="#263238"/>
<path d="M137.78 263.485C137.78 263.485 149.48 264.645 155.41 271.891C155.41 271.891 161.68 263.495 172.93 263.665C176.2 259.728 178.16 254.68 178.16 249.174C178.16 236.621 167.99 226.437 155.42 226.437C142.86 226.437 132.67 236.601 132.67 249.164C132.67 254.601 134.58 259.598 137.77 263.515L137.78 263.485Z" fill="#7DDFC3"/>
<path d="M155.03 228.037L154.63 286.653H156.61L155.03 228.037Z" fill="#263238"/>
<path d="M155.62 269.682C155.62 269.682 159.57 262.576 166.68 260.407C166.68 260.407 159.18 262.186 155.42 268.303L155.62 269.682Z" fill="#263238"/>
<path d="M155.62 249.543C155.62 249.543 159.57 242.437 166.68 240.269C166.68 240.269 159.18 242.048 155.42 248.164L155.62 249.543Z" fill="#263238"/>
<path d="M155.62 259.618C155.62 259.618 159.57 252.512 166.68 250.343C166.68 250.343 159.18 252.122 155.42 258.238L155.62 259.618Z" fill="#263238"/>
<path d="M155.03 254.68C155.03 254.68 151.22 247.574 144.36 245.406C144.36 245.406 151.6 247.185 155.22 253.301L155.03 254.68Z" fill="#263238"/>
<path d="M155.03 264.545C155.03 264.545 151.22 257.439 144.36 255.27C144.36 255.27 151.6 257.049 155.22 263.166L155.03 264.545Z" fill="#263238"/>
<path d="M359 319.868C359 319.939 282.435 320 188.008 320C93.5496 320 17 319.939 17 319.868C17 319.796 93.5496 319.735 188.008 319.735C282.435 319.735 359 319.791 359 319.868Z" fill="#263238"/>
<path d="M56.3 55.7032C54.85 54.9132 54.19 55.5732 53.66 54.9132C53.13 54.2532 55.11 52.5432 51.16 50.8232C51.16 50.8232 50.9 47.1332 45.49 47.0032C40.09 46.8732 41.54 50.6932 40.09 51.6132C38.64 52.5332 38.24 51.0832 36.79 52.0132C35.34 52.9332 36 54.7832 34.81 55.0432C33.62 55.3032 32.04 53.8532 30.59 54.7832C29.14 55.7032 29.14 56.4932 28.48 56.4932C27.82 56.4932 26.5 55.9632 25.71 56.4932C24.92 57.0232 24 57.6832 24 57.6832H57.35C57.36 57.6732 57.75 56.4932 56.3 55.7032Z" fill="#C4DBFE"/>
<path d="M163.4 11.9745C161.41 10.8845 160.5 11.7945 159.78 10.8845C159.05 9.97452 161.77 7.62452 156.34 5.26452C156.34 5.26452 155.98 0.194519 148.55 0.00451894C141.12 -0.175481 143.11 5.07452 141.12 6.34452C139.13 7.61452 138.58 5.62452 136.59 6.88452C134.6 8.15452 135.5 10.6945 133.87 11.0545C132.24 11.4145 130.06 9.42452 128.07 10.6945C126.08 11.9645 126.08 13.0545 125.17 13.0545C124.26 13.0545 122.45 12.3345 121.36 13.0545C120.27 13.7845 119 14.6845 119 14.6845H164.85C164.85 14.6945 165.39 13.0545 163.4 11.9745Z" fill="#C4DBFE"/>
<path d="M337.16 34.1673C333.97 32.4273 332.51 33.8773 331.35 32.4273C330.19 30.9773 334.54 27.1973 325.83 23.4273C325.83 23.4273 325.25 15.2973 313.34 15.0073C301.43 14.7173 304.63 23.1373 301.43 25.1673C298.24 27.1973 297.36 24.0073 294.17 26.0373C290.98 28.0673 292.43 32.1373 289.81 32.7173C287.2 33.2973 283.71 30.1073 280.52 32.1373C277.33 34.1673 277.33 35.9073 275.87 35.9073C274.42 35.9073 271.51 34.7473 269.77 35.9073C268.03 37.0673 266 38.5173 266 38.5173H339.46C339.48 38.5173 340.36 35.9073 337.16 34.1673Z" fill="#C4DBFE"/>
</svg>
