<svg width="30" height="16" viewBox="0 0 30 16" fill="none" xmlns="http://www.w3.org/2000/svg">
<path d="M2.99998 0C1.51998 0 0.333313 1.18667 0.333313 2.66667V12H2.99998C2.99998 13.0609 3.42141 14.0783 4.17155 14.8284C4.9217 15.5786 5.93911 16 6.99998 16C8.06085 16 9.07826 15.5786 9.82841 14.8284C10.5786 14.0783 11 13.0609 11 12H19C19 13.0609 19.4214 14.0783 20.1716 14.8284C20.9217 15.5786 21.9391 16 23 16C24.0608 16 25.0783 15.5786 25.8284 14.8284C26.5786 14.0783 27 13.0609 27 12H29.6666V8C29.6666 6.52 28.48 5.33333 27 5.33333H24.3333V2.66667C24.3333 1.18667 23.1466 0 21.6666 0H2.99998ZM17 2H22.3333V5.33333H17V2ZM2.33331 2H7.66665V5.33333H2.33331V2ZM9.66665 2H15V5.33333H9.66665V2ZM6.99998 10C7.53041 10 8.03912 10.2107 8.41419 10.5858C8.78927 10.9609 8.99998 11.4696 8.99998 12C8.99998 12.5304 8.78927 13.0391 8.41419 13.4142C8.03912 13.7893 7.53041 14 6.99998 14C6.46955 14 5.96084 13.7893 5.58577 13.4142C5.21069 13.0391 4.99998 12.5304 4.99998 12C4.99998 11.4696 5.21069 10.9609 5.58577 10.5858C5.96084 10.2107 6.46955 10 6.99998 10ZM23 10C23.5304 10 24.0391 10.2107 24.4142 10.5858C24.7893 10.9609 25 11.4696 25 12C25 12.5304 24.7893 13.0391 24.4142 13.4142C24.0391 13.7893 23.5304 14 23 14C22.4695 14 21.9608 13.7893 21.5858 13.4142C21.2107 13.0391 21 12.5304 21 12C21 11.4696 21.2107 10.9609 21.5858 10.5858C21.9608 10.2107 22.4695 10 23 10Z" fill="white"/>
</svg>
