<svg width="220" height="89" viewBox="0 0 220 89" fill="none" xmlns="http://www.w3.org/2000/svg">
<path d="M36.5778 80.0345C37.713 80.3619 39.4775 80.919 39.4775 83.1302C39.4775 85.4776 37.3389 86.243 35.5872 86.243C34.571 86.243 33.4485 85.9878 32.7172 85.4053C31.7606 84.6441 31.5225 83.5512 31.5225 83.2493C31.5225 82.6667 32.122 82.5477 32.3771 82.5477C32.8405 82.5477 32.917 82.756 32.9766 82.9814C33.1126 83.4747 33.2317 84.0445 33.8737 84.508C34.5157 84.9715 35.2938 85.0013 35.7275 85.0013C36.0719 85.0013 36.8797 85.0013 37.4154 84.5676C37.8193 84.2699 38.0574 83.7894 38.0574 83.2663C38.0574 82.6667 37.7301 82.2798 37.5047 82.1012C37.0838 81.7397 36.4418 81.5484 35.6212 81.306L34.4987 80.9913C34.0948 80.8722 33.6441 80.7361 33.304 80.5703C33.0021 80.4512 31.9859 79.9112 31.9859 78.3548C31.9859 76.6198 33.1381 75.3611 35.5744 75.3611C36.2632 75.3611 37.3984 75.4504 38.2828 76.1691C38.8823 76.6794 39.299 77.5298 39.299 77.9338C39.299 78.3973 38.9546 78.6227 38.5507 78.6227C38.3848 78.6227 38.236 78.5929 38.0702 78.3676C38.0234 78.308 37.8746 77.9806 37.8151 77.8573C37.6195 77.4703 37.1731 76.556 35.5106 76.556C34.9281 76.556 34.4349 76.6751 34.0735 76.9303C33.7291 77.1684 33.4443 77.5894 33.4443 78.189C33.4443 78.7418 33.7419 79.0139 33.8184 79.0735C34.1033 79.2988 34.7326 79.4944 35.2088 79.6263L36.5778 80.0345Z" fill="#58595B"/>
<path d="M48.9256 85.5243C48.9128 85.7497 48.8831 85.9453 48.5982 86.1069C48.4026 86.2132 48.1348 86.2132 47.9094 86.1069C47.5948 85.9411 47.5948 85.7029 47.5948 85.1034C46.9528 85.9581 46.3107 86.2387 45.218 86.2387C44.8566 86.2387 43.917 86.209 43.2282 85.4776C42.5862 84.7462 42.5862 83.8149 42.5862 83.1005V78.9416C42.5862 78.763 42.6457 78.2528 43.275 78.2528C43.9042 78.2528 43.9765 78.7333 43.9765 78.9246V82.6497C43.9765 83.6533 44.0233 84.07 44.2146 84.4315C44.576 85.0736 45.2478 85.0608 45.4391 85.0608C46.4128 85.0608 47.2334 84.491 47.4587 83.4747C47.5055 83.2791 47.5353 83.1005 47.5353 82.9219V78.9416C47.5353 78.763 47.5948 78.2528 48.224 78.2528C48.8661 78.2528 48.9256 78.763 48.9256 78.9416V80.3322C49.0319 80.2259 49.1339 80.094 49.2402 79.9452C49.4783 79.571 49.5378 79.2138 49.6016 78.8523C49.6314 78.644 49.7079 78.2528 50.2011 78.2528C50.8601 78.2528 50.8304 78.8949 50.8304 79.0139C50.8304 79.8517 50.3372 80.6894 49.5123 80.9445L48.9298 81.0806V85.5243H48.9256ZM45.843 77.1769C45.7708 77.2832 45.6645 77.4023 45.4391 77.4023C45.0947 77.4023 44.8991 77.1642 44.8991 76.9388C44.8991 76.8665 44.9162 76.8197 44.9289 76.7729L45.3796 75.4419C45.4561 75.2633 45.5752 74.9912 46.0089 74.9912C46.4255 74.9912 46.7572 75.2931 46.7572 75.6333C46.7572 75.7991 46.6806 75.9012 46.6211 76.0203L45.843 77.1769Z" fill="#58595B"/>
<path d="M57.7564 78.8991C57.7564 78.6737 57.8032 78.4654 58.0838 78.3293C58.2496 78.223 58.577 78.2102 58.8023 78.3293C59.117 78.4951 59.117 78.7035 59.117 79.2265C59.6995 78.5079 60.3415 78.1805 61.3024 78.1805C61.7658 78.1805 62.1868 78.257 62.5907 78.4781C63.1307 78.763 63.339 79.167 63.4453 79.3924C64.0278 78.6907 64.7293 78.1805 65.8688 78.1805C66.6299 78.1805 67.3782 78.3165 67.9309 78.9714C68.4539 79.5837 68.4709 80.2556 68.4709 81.021V85.4946C68.4709 85.6732 68.4114 86.1834 67.7693 86.1834C67.6333 86.1834 67.5312 86.1537 67.425 86.0941C67.1273 85.9581 67.0806 85.7199 67.0806 85.4946V82.1437C67.0806 81.6802 67.0678 81.2762 67.0678 81.0381C67.0678 80.5448 67.021 79.3924 65.6605 79.3924C64.8356 79.3924 64.3722 79.8261 64.1341 80.1833C63.7897 80.6766 63.8067 81.1571 63.8067 81.7992V85.5116C63.8067 85.7369 63.7599 85.9623 63.4793 86.0941C63.3432 86.1707 63.1944 86.1834 63.1179 86.1834C62.9989 86.1834 62.8798 86.1537 62.7608 86.0941C62.4759 85.9581 62.4291 85.7327 62.4291 85.5116V81.7269C62.4291 81.0253 62.4461 80.8892 62.3993 80.6638C62.3526 80.4087 62.2505 79.3924 61.0388 79.3924C60.4265 79.3924 59.8738 79.6008 59.5124 80.1833C59.168 80.7234 59.151 81.2592 59.151 82.0841V85.5116C59.151 85.6179 59.1212 85.7199 59.0745 85.839C59.0149 85.9751 58.8194 86.1834 58.4622 86.1834C57.8202 86.1834 57.7607 85.6902 57.7607 85.5116V78.8991H57.7564Z" fill="#58595B"/>
<path d="M72.7652 82.5945C72.8077 83.2663 72.9437 83.8659 73.3477 84.3592C73.8706 85.0013 74.4701 85.0906 75.0654 85.0906C76.2474 85.0906 76.664 84.4783 76.9362 84.0573C77.1743 83.6533 77.2338 83.5045 77.5782 83.5045C77.9226 83.5045 78.3563 83.7001 78.3563 84.1338C78.3563 84.2104 78.3563 84.2529 78.3392 84.2827C78.2797 84.5676 78.0246 84.895 77.8588 85.0736C76.8129 86.2388 75.4821 86.2388 75.0611 86.2388C74.0875 86.2388 73.1011 86.0431 72.34 85.1927C71.6682 84.4315 71.3536 83.3514 71.3536 82.2755C71.3536 80.4045 72.3697 78.1932 75.0186 78.1932C75.363 78.1932 75.6776 78.223 75.9923 78.2995C76.664 78.4654 77.2465 78.7801 77.7142 79.4222C78.2074 80.1238 78.4625 81.0806 78.4625 81.9226C78.4625 82.5647 77.9821 82.5945 77.7908 82.5945H72.7652ZM77.0552 81.4718C76.9787 80.4853 76.4855 79.3924 75.0356 79.3924C74.721 79.3924 74.1087 79.4222 73.5858 79.8857C72.9863 80.4087 72.8545 81.1274 72.7779 81.4718H77.0552ZM74.9463 75.999L73.9429 77.1939C73.8239 77.313 73.7346 77.3895 73.5517 77.3895C73.2074 77.3895 72.999 77.1344 72.999 76.9388C72.999 76.8367 73.0415 76.7432 73.0883 76.6411L74.0024 75.3569C74.1683 75.1911 74.3043 74.9954 74.9463 74.9954C75.5883 74.9954 75.7372 75.1911 75.903 75.3569L76.7873 76.6411C76.8341 76.7474 76.8936 76.8367 76.8936 76.9388C76.8936 77.1344 76.6555 77.3895 76.3537 77.3895C76.1283 77.3895 76.0518 77.3002 75.9497 77.1939L74.9463 75.999ZM74.9633 86.9319C75.397 86.9319 75.8009 87.2296 75.8009 87.7866C75.8009 88.3097 75.4863 88.6116 74.9633 88.6116C74.4234 88.6116 74.1257 88.2671 74.1257 87.7866C74.1257 87.2466 74.4999 86.9319 74.9633 86.9319Z" fill="#58595B"/>
<path d="M81.3368 78.9161C81.3368 78.6908 81.3793 78.4951 81.6642 78.3336C81.8598 78.2272 82.1744 78.2272 82.353 78.3336C82.6974 78.4994 82.6804 78.7205 82.6804 79.3201C83.2926 78.4824 84.0707 78.1975 85.0911 78.1975C85.9117 78.1975 86.66 78.4356 87.1575 79.0522C87.6507 79.6943 87.6804 80.4895 87.6804 81.2805V85.5158C87.6804 85.7114 87.6209 86.1877 86.9917 86.1877C86.8896 86.1877 86.7663 86.1579 86.6345 86.1112C86.3496 85.9453 86.3071 85.737 86.3071 85.5116V81.9821C86.3071 81.1912 86.2774 81.0083 86.2774 80.8765C86.2774 80.4725 86.1881 79.3796 84.7977 79.3796C83.4202 79.3796 82.9567 80.413 82.7909 81.0849C82.6846 81.4888 82.7186 81.863 82.7186 82.267V85.5116C82.7186 85.7072 82.6591 86.1835 82.0298 86.1835C81.9235 86.1835 81.8045 86.1537 81.6684 86.1069C81.3836 85.9411 81.341 85.7327 81.341 85.5073V78.9161H81.3368Z" fill="#58595B"/>
<path d="M92.3361 79.2308C92.876 78.5122 93.8157 78.1975 94.7128 78.1975C96.1329 78.1975 96.6856 78.9289 96.8047 79.0947C97.2851 79.7666 97.2851 80.6341 97.2851 81.3528V85.5116C97.2851 85.6307 97.2554 85.737 97.2129 85.839C97.1533 85.9751 96.9748 86.1835 96.6006 86.1835C95.9713 86.1835 95.9118 85.7029 95.9118 85.5116V81.7695C95.9118 80.8552 95.882 80.4555 95.7035 80.094C95.3421 79.4519 94.6873 79.4349 94.4322 79.4349C93.7902 79.4349 93.2374 79.7028 92.8931 80.0643C92.3531 80.6469 92.3233 81.2762 92.3233 81.9779V85.5073C92.3233 85.6264 92.2936 85.7327 92.2468 85.8348C92.1873 85.9708 92.0087 86.1792 91.6345 86.1792C91.0053 86.1792 90.9457 85.6987 90.9457 85.5073V76.1266C90.9457 75.948 91.0053 75.4377 91.6345 75.4377C92.2638 75.4377 92.3361 75.931 92.3361 76.1096V79.2308Z" fill="#58595B"/>
<path d="M106.222 79.5115H105.427C105.261 79.5115 104.858 79.4689 104.858 78.9289C104.858 78.3888 105.261 78.3463 105.427 78.3463H106.235V76.5986C106.235 76.403 106.312 75.9565 106.907 75.9565C107.566 75.9565 107.596 76.4072 107.596 76.5986V78.3463H108.523C108.688 78.3463 109.092 78.3931 109.092 78.9289C109.092 79.4689 108.688 79.5115 108.523 79.5115H107.596V83.3131C107.596 84.2104 107.613 84.3294 107.655 84.4953C107.762 84.929 108.042 84.9885 108.45 85.0353C108.807 85.0353 109.182 85.0949 109.182 85.6051C109.182 86.1452 108.701 86.1877 108.297 86.1877C106.201 86.1877 106.218 85.0523 106.218 83.8999V79.5115H106.222Z" fill="#58595B"/>
<path d="M112.358 75.442C112.791 75.442 113.195 75.7396 113.195 76.2967C113.195 76.8197 112.881 77.1216 112.358 77.1216C111.818 77.1216 111.52 76.7645 111.52 76.2967C111.52 75.7566 111.894 75.442 112.358 75.442ZM113.047 85.5116C113.047 85.6307 113.017 85.737 112.97 85.839C112.911 85.9751 112.732 86.1835 112.371 86.1835C111.967 86.1835 111.682 85.9283 111.682 85.5116V78.9162C111.682 78.7376 111.758 78.257 112.354 78.257C112.983 78.257 113.042 78.7376 113.042 78.9162V85.5116H113.047Z" fill="#58595B"/>
<path d="M117.341 82.5945C117.383 83.2663 117.519 83.8659 117.923 84.3592C118.446 85.0013 119.046 85.0906 119.641 85.0906C120.823 85.0906 121.24 84.4783 121.512 84.0573C121.75 83.6533 121.81 83.5045 122.154 83.5045C122.498 83.5045 122.932 83.7001 122.932 84.1338C122.932 84.2104 122.932 84.2529 122.915 84.2827C122.855 84.5676 122.6 84.895 122.435 85.0736C121.389 86.2388 120.058 86.2388 119.637 86.2388C118.663 86.2388 117.677 86.0431 116.916 85.1927C116.244 84.4315 115.929 83.3514 115.929 82.2755C115.929 80.4045 116.945 78.1932 119.594 78.1932C119.939 78.1932 120.253 78.223 120.568 78.2996C121.24 78.4654 121.822 78.7801 122.29 79.4222C122.783 80.1238 123.038 81.0806 123.038 81.9226C123.038 82.5647 122.558 82.5945 122.367 82.5945H117.341ZM121.631 81.4718C121.554 80.4853 121.061 79.3924 119.611 79.3924C119.297 79.3924 118.684 79.4222 118.162 79.8857C117.562 80.4087 117.43 81.1274 117.354 81.4718H121.631ZM119.611 75.982L118.608 77.1769C118.489 77.296 118.4 77.3725 118.221 77.3725C117.877 77.3725 117.668 77.1174 117.668 76.9218C117.668 76.8155 117.715 76.7262 117.758 76.6241L118.672 75.3356C118.838 75.1698 118.969 74.9784 119.616 74.9784C120.258 74.9784 120.406 75.174 120.572 75.3356L121.457 76.6241C121.503 76.7304 121.563 76.8197 121.563 76.9218C121.563 77.1174 121.325 77.3725 121.023 77.3725C120.798 77.3725 120.725 77.2832 120.619 77.1769L119.611 75.982Z" fill="#58595B"/>
<path d="M125.917 78.9161C125.917 78.6908 125.959 78.4951 126.244 78.3336C126.44 78.2272 126.754 78.2272 126.933 78.3336C127.277 78.4994 127.26 78.7205 127.26 79.3201C127.873 78.4824 128.651 78.1975 129.667 78.1975C130.492 78.1975 131.236 78.4356 131.733 79.0522C132.226 79.6943 132.256 80.4895 132.256 81.2805V85.5158C132.256 85.7114 132.197 86.1877 131.567 86.1877C131.465 86.1877 131.342 86.1579 131.21 86.1112C130.925 85.9453 130.883 85.737 130.883 85.5116V81.9821C130.883 81.1912 130.853 81.0083 130.853 80.8765C130.853 80.4725 130.764 79.3796 129.373 79.3796C127.996 79.3796 127.532 80.413 127.367 81.0849C127.26 81.4888 127.294 81.863 127.294 82.267V85.5116C127.294 85.7072 127.235 86.1835 126.606 86.1835C126.499 86.1835 126.38 86.1537 126.244 86.1069C125.959 85.9411 125.917 85.7327 125.917 85.5073V78.9161Z" fill="#58595B"/>
<path d="M141.087 78.9289C141.087 78.7333 141.147 78.257 141.776 78.257C141.835 78.257 141.971 78.257 142.133 78.3336C142.477 78.4994 142.477 78.7673 142.477 79.2308C143.077 78.5122 143.825 78.1848 144.782 78.1848C146.695 78.1848 148.115 79.6518 148.115 82.2075C148.115 84.0786 147.295 86.2473 144.943 86.2473C143.702 86.2473 143.119 85.754 142.473 85.1842V88.3097C142.473 88.4883 142.414 88.9986 141.772 88.9986C141.665 88.9986 141.546 88.9688 141.427 88.922C141.13 88.7562 141.083 88.5308 141.083 88.3097V78.9289H141.087ZM144.616 79.3329C143.196 79.3329 142.448 80.396 142.448 82.131C142.448 83.8659 143.166 85.1374 144.603 85.1374C145.398 85.1374 145.904 84.7462 146.189 84.3422C146.606 83.7596 146.699 82.9347 146.699 82.233C146.695 81.4591 146.653 79.3329 144.616 79.3329Z" fill="#58595B"/>
<path d="M152.401 79.2308C152.941 78.5122 153.881 78.1975 154.778 78.1975C156.198 78.1975 156.75 78.9289 156.87 79.0947C157.35 79.7666 157.35 80.6341 157.35 81.3528V85.5116C157.35 85.6307 157.32 85.737 157.273 85.839C157.214 85.9751 157.035 86.1835 156.661 86.1835C156.032 86.1835 155.972 85.7029 155.972 85.5116V81.7695C155.972 80.8552 155.943 80.4555 155.764 80.094C155.403 79.4519 154.748 79.4349 154.493 79.4349C153.851 79.4349 153.298 79.7028 152.954 80.0643C152.414 80.6469 152.384 81.2762 152.384 81.9779V85.5073C152.384 85.6264 152.354 85.7327 152.307 85.8348C152.248 85.9708 152.069 86.1792 151.695 86.1792C151.066 86.1792 151.006 85.6987 151.006 85.5073V76.1266C151.006 75.948 151.066 75.4377 151.695 75.4377C152.324 75.4377 152.397 75.931 152.397 76.1096V79.2308H152.401Z" fill="#58595B"/>
<path d="M166.657 85.1544C165.743 86.158 164.625 86.2473 163.906 86.2473C163.145 86.2473 162.036 86.158 161.198 85.2012C160.271 84.1976 160.241 82.8071 160.241 82.2543C160.241 81.5356 160.318 80.2812 161.168 79.3074C162.082 78.2613 163.354 78.1848 163.979 78.1848C166.177 78.1848 167.644 79.5923 167.644 82.148C167.644 82.8199 167.571 84.1509 166.657 85.1544ZM165.671 84.3295C166.194 83.6576 166.224 82.7135 166.224 82.2373C166.224 80.7872 165.743 79.3329 163.919 79.3329C163.515 79.3329 162.707 79.3924 162.155 80.1876C161.751 80.7702 161.644 81.5484 161.644 82.25C161.644 83.0112 161.78 83.8362 162.197 84.3762C162.499 84.7504 163.082 85.1374 163.932 85.1374C164.608 85.1374 165.267 84.8695 165.671 84.3295Z" fill="#58595B"/>
<path d="M170.539 78.9161C170.539 78.6908 170.582 78.4951 170.867 78.3336C171.062 78.2272 171.377 78.2272 171.555 78.3336C171.9 78.4994 171.883 78.7205 171.883 79.3201C172.495 78.4824 173.273 78.1975 174.293 78.1975C175.118 78.1975 175.862 78.4356 176.36 79.0522C176.853 79.6943 176.883 80.4895 176.883 81.2805V85.5158C176.883 85.7114 176.823 86.1877 176.194 86.1877C176.092 86.1877 175.969 86.1579 175.837 86.1112C175.552 85.9453 175.51 85.737 175.51 85.5116V81.9821C175.51 81.1912 175.48 81.0083 175.48 80.8765C175.48 80.4725 175.39 79.3796 174 79.3796C172.623 79.3796 172.159 80.413 171.993 81.0849C171.887 81.4888 171.921 81.863 171.921 82.267V85.5116C171.921 85.7072 171.861 86.1835 171.232 86.1835C171.126 86.1835 171.007 86.1537 170.871 86.1069C170.586 85.9411 170.543 85.7327 170.543 85.5073V78.9161H170.539Z" fill="#58595B"/>
<path d="M186.483 85.0778C186.483 86.7108 186.288 87.5017 185.692 88.0545C185.169 88.535 184.272 88.7859 183.239 88.7859C182.355 88.7859 181.581 88.6201 181.054 88.2161C180.531 87.8419 180.169 87.1998 180.169 86.7958C180.169 86.3323 180.573 86.1367 180.888 86.1367C181.351 86.1367 181.487 86.4514 181.607 86.7065C181.743 86.9914 181.802 87.0935 181.904 87.2168C182.236 87.574 182.997 87.6378 183.324 87.6378C185.106 87.6378 185.148 86.5024 185.195 85.4691L185.208 84.7802C184.851 85.1842 184.323 85.8263 182.95 85.8263C180.705 85.8263 179.766 84.104 179.766 82.1309C179.766 81.5909 179.825 81.0849 179.961 80.5916C180.395 79.0947 181.487 78.1975 183.116 78.1975C183.669 78.1975 184.06 78.3038 184.34 78.4229C184.923 78.678 185.101 78.9459 185.267 79.2308C185.28 78.7375 185.28 78.661 185.344 78.5419C185.403 78.4356 185.552 78.274 185.867 78.274C186.437 78.274 186.479 78.678 186.479 78.8438V85.0778H186.483ZM183.269 79.3796C182.776 79.3796 182.117 79.5285 181.653 80.1876C181.292 80.7106 181.173 81.4123 181.173 82.0289C181.173 82.7008 181.292 83.4364 181.653 83.9127C181.951 84.3294 182.478 84.6441 183.15 84.6441C183.851 84.6441 184.451 84.2997 184.795 83.8191C185.199 83.2195 185.229 82.2925 185.229 81.9183C185.229 81.5314 185.229 79.3796 183.269 79.3796Z" fill="#58595B"/>
<path d="M40.9832 39.9047C42.5308 39.4965 44.1933 39.2924 45.9748 39.2924C50.116 39.2924 53.6492 40.415 56.5702 42.6603C59.4912 44.9055 60.9495 47.6186 60.9495 50.8036V62.3148C60.9495 63.3779 60.4648 64.2794 59.4912 65.0278C58.5175 65.7763 57.3398 66.1505 55.9579 66.1505C54.5761 66.1505 53.3984 65.7763 52.4247 65.0278C51.4511 64.2794 50.9663 63.3737 50.9663 62.3148V50.8036C50.9663 49.7405 50.4816 48.839 49.508 48.0906C48.5343 47.3422 47.3566 46.9679 45.9748 46.9679C44.5929 46.9679 43.4152 47.3422 42.4415 48.0906C41.4679 48.839 40.9832 49.7448 40.9832 50.8036V62.3148C40.9832 63.3779 40.4985 64.2794 39.5248 65.0278C38.5512 65.7763 37.3734 66.1505 35.9916 66.1505C34.6098 66.1505 33.432 65.7763 32.4584 65.0278C31.4847 64.2752 31 63.3694 31 62.3106V30.9279C31 29.8648 31.4847 28.9633 32.4584 28.2149C33.432 27.4665 34.6098 27.0923 35.9916 27.0923C37.3734 27.0923 38.5512 27.4665 39.5248 28.2149C40.4985 28.9633 40.9832 29.8691 40.9832 30.9279V39.9047Z" fill="#F7941D"/>
<path d="M90.7035 64.5346C88.1907 65.6104 85.3887 66.1462 82.2935 66.1462C77.4677 66.1462 73.352 64.8365 69.942 62.2128C66.5321 59.589 64.8271 56.4253 64.8271 52.7172C64.8271 49.0091 66.5321 45.8453 69.942 43.2216C73.352 40.5979 77.4719 39.2881 82.2935 39.2881C85.3887 39.2881 88.1907 39.8239 90.7035 40.8998C90.8523 40.7339 91.0351 40.5681 91.2519 40.4023C92.2171 39.6623 93.3906 39.2881 94.7724 39.2881C96.1542 39.2881 97.332 39.6623 98.3056 40.4108C99.2793 41.1592 99.764 42.0649 99.764 43.1238V62.3063C99.764 63.3694 99.2793 64.2709 98.3056 65.0193C97.332 65.7678 96.1542 66.142 94.7724 66.142C93.3906 66.142 92.2171 65.7635 91.2519 65.0108C91.0351 64.862 90.8523 64.7004 90.7035 64.5346ZM87.5827 56.7867C89.0453 55.6598 89.7808 54.3076 89.7808 52.7214C89.7808 51.1353 89.0495 49.7788 87.5827 48.6561C86.1201 47.5293 84.3556 46.9679 82.2935 46.9679C80.2313 46.9679 78.4669 47.5293 77.0042 48.6561C75.5416 49.783 74.8061 51.1353 74.8061 52.7214C74.8061 54.3076 75.5374 55.6641 77.0042 56.7867C78.4669 57.9136 80.2313 58.4749 82.2935 58.4749C84.3556 58.4749 86.1201 57.9093 87.5827 56.7867Z" fill="#F7941D"/>
<path d="M113.837 62.3106C113.837 63.3737 113.353 64.2752 112.379 65.0236C111.405 65.772 110.228 66.1462 108.846 66.1462C107.464 66.1462 106.286 65.772 105.312 65.0236C104.339 64.2752 103.854 63.3694 103.854 62.3106V30.6175C103.854 29.5544 104.339 28.6529 105.312 27.9045C106.286 27.1561 107.464 26.7819 108.846 26.7819C110.228 26.7819 111.405 27.1561 112.379 27.9045C113.353 28.6529 113.837 29.5587 113.837 30.6175V62.3106Z" fill="#F7941D"/>
<path d="M143.659 64.5346C141.146 65.6104 138.345 66.1462 135.249 66.1462C130.423 66.1462 126.308 64.8365 122.898 62.2128C119.488 59.589 117.783 56.4253 117.783 52.7172C117.783 49.0091 119.488 45.8453 122.898 43.2216C126.308 40.5979 130.428 39.2881 135.249 39.2881C138.345 39.2881 141.146 39.8239 143.659 40.8998C143.808 40.7339 143.991 40.5681 144.208 40.4023C145.173 39.6623 146.346 39.2881 147.728 39.2881C149.11 39.2881 150.288 39.6623 151.261 40.4108C152.235 41.1592 152.72 42.0649 152.72 43.1238V62.3063C152.72 63.3694 152.235 64.2709 151.261 65.0193C150.288 65.7678 149.11 66.142 147.728 66.142C146.346 66.142 145.173 65.7635 144.208 65.0108C143.991 64.862 143.808 64.7004 143.659 64.5346ZM140.538 56.7867C142.001 55.6598 142.737 54.3076 142.737 52.7214C142.737 51.1353 142.005 49.7788 140.538 48.6561C139.076 47.5293 137.311 46.9679 135.249 46.9679C133.187 46.9679 131.423 47.5293 129.96 48.6561C128.497 49.783 127.762 51.1353 127.762 52.7214C127.762 54.3076 128.493 55.6641 129.96 56.7867C131.423 57.9136 133.187 58.4749 135.249 58.4749C137.311 58.4749 139.076 57.9093 140.538 56.7867Z" fill="#F7941D"/>
<path d="M165.441 40.3852C167.406 39.6581 169.57 39.2924 171.929 39.2924C176.071 39.2924 179.604 40.415 182.521 42.6603C185.442 44.9055 186.9 47.6185 186.9 50.8036V62.3148C186.9 63.3779 186.411 64.2794 185.437 65.0278C184.464 65.7762 183.286 66.1504 181.904 66.1504C180.522 66.1504 179.349 65.7762 178.375 65.0278C177.401 64.2794 176.912 63.3736 176.912 62.3148V50.8036C176.912 49.7405 176.424 48.839 175.45 48.0906C174.476 47.3421 173.298 46.9679 171.921 46.9679C170.539 46.9679 169.361 47.3421 168.388 48.0906C167.414 48.839 166.925 49.7447 166.925 50.8036V62.3148C166.925 63.3779 166.44 64.2794 165.467 65.0278C164.493 65.7762 163.315 66.1504 161.933 66.1504C160.552 66.1504 159.374 65.7762 158.4 65.0278C157.427 64.2794 156.942 63.3736 156.942 62.3148V43.128C156.942 42.0649 157.427 41.1634 158.4 40.415C159.374 39.6666 160.552 39.2924 161.933 39.2924C163.311 39.2881 164.476 39.6538 165.441 40.3852Z" fill="#F7941D"/>
<path d="M193.673 28.1001L186.925 34.8486C188.932 36.8558 191.356 38.1995 193.915 38.8842C199.115 40.2747 204.893 38.9309 208.971 34.8486L219.983 23.835C217.045 26.7649 213.508 28.7252 209.766 29.7245C204.434 31.1491 198.69 30.6048 193.673 28.1001Z" fill="#F15A22"/>
<path d="M203.86 7.68014C197.891 1.70553 189.434 -0.259071 181.819 1.77357C178.069 2.77288 174.527 4.73749 171.585 7.68014L187.721 23.8179C189.511 25.6082 191.522 27.0285 193.669 28.0959L197.946 23.8179C202.028 19.7399 207.802 18.3962 213.006 19.7824C215.565 20.4671 217.989 21.8066 219.996 23.8179L219.983 23.8307L220 23.8179L203.86 7.68014Z" fill="#FFCB05"/>
<path d="M208.967 19.2594H208.958C204.974 19.2594 200.99 20.7817 197.946 23.8222L193.673 28.1001C193.732 28.1299 193.792 28.1596 193.852 28.1894C193.856 28.1936 193.864 28.1936 193.869 28.1979C197.015 29.7287 200.438 30.4984 203.864 30.4984H203.873H203.877C205.842 30.4984 207.806 30.2475 209.719 29.7415L209.77 29.7287C213.512 28.7294 217.049 26.7691 219.987 23.8392L220 23.8264C217.993 21.8193 215.57 20.4756 213.01 19.7909C212.989 19.7867 212.968 19.7782 212.946 19.7739C211.645 19.4295 210.306 19.2594 208.967 19.2594Z" fill="#939598"/>
<path d="M193.852 28.1894C193.856 28.1937 193.864 28.1937 193.869 28.1979C193.864 28.1937 193.856 28.1894 193.852 28.1894ZM209.715 29.7373C207.802 30.2433 205.837 30.4942 203.873 30.4942C205.837 30.4985 207.802 30.2433 209.715 29.7373ZM203.865 30.4985H203.873H203.865Z" fill="#905745"/>
<path d="M208.958 19.2594C204.974 19.2594 200.99 20.7817 197.946 23.8222L193.673 28.1001L197.95 23.8222C200.99 20.7817 204.974 19.2594 208.958 19.2594ZM212.942 19.7697C212.963 19.7739 212.985 19.7824 213.006 19.7867C215.565 20.4713 217.989 21.8108 219.996 23.8222C217.989 21.8151 215.565 20.4713 213.006 19.7867C212.985 19.7824 212.963 19.7782 212.942 19.7697Z" fill="#948456"/>
<path d="M213.006 19.7867C207.806 18.4004 202.028 19.7399 197.946 23.8222L193.673 28.1001C198.69 30.6047 204.434 31.149 209.766 29.7245C213.508 28.7252 217.045 26.7648 219.983 23.8349L219.996 23.8222C217.989 21.8108 215.565 20.4713 213.006 19.7867Z" fill="#F7941D"/>
</svg>
