<svg width="41" height="24" viewBox="0 0 41 24" fill="none" xmlns="http://www.w3.org/2000/svg">
<path d="M0 0H41V16C41 20.4183 37.4183 24 33 24H8C3.58172 24 0 20.4183 0 16V0Z" fill="#E62020"/>
<path d="M12.834 17L10.3496 9.8457H10.3027C10.3691 10.9082 10.4023 11.9043 10.4023 12.834V17H9.13086V8.43359H11.1055L13.4844 15.248H13.5195L15.9688 8.43359H17.9492V17H16.6016V12.7637C16.6016 12.3379 16.6113 11.7832 16.6309 11.0996C16.6543 10.416 16.6738 10.002 16.6895 9.85742H16.6426L14.0703 17H12.834ZM27.7988 12.7051C27.7988 14.0996 27.4512 15.1836 26.7559 15.957C26.0605 16.7305 25.0762 17.1172 23.8027 17.1172C22.5098 17.1172 21.5156 16.7344 20.8203 15.9688C20.1289 15.1992 19.7832 14.1074 19.7832 12.6934C19.7832 11.2793 20.1309 10.1934 20.8262 9.43555C21.5254 8.67773 22.5215 8.29883 23.8145 8.29883C25.123 8.29883 26.127 8.70703 26.8262 9.52344C27.0566 9.43359 27.2266 9.25781 27.3359 8.99609C27.4453 8.73438 27.5 8.36328 27.5 7.88281H28.9121L29 8.01172C28.875 8.66406 28.6777 9.17383 28.4082 9.54102C28.1426 9.9043 27.7871 10.1699 27.3418 10.3379C27.6465 11.0176 27.7988 11.8066 27.7988 12.7051ZM21.2715 12.7051C21.2715 13.7715 21.4844 14.5742 21.9102 15.1133C22.3398 15.6523 22.9707 15.9219 23.8027 15.9219C25.4824 15.9219 26.3223 14.8496 26.3223 12.7051C26.3223 10.5684 25.4863 9.5 23.8145 9.5C22.9746 9.5 22.3398 9.76953 21.9102 10.3086C21.4844 10.8438 21.2715 11.6426 21.2715 12.7051ZM22.8887 7.74805V7.60156C23.1113 7.32812 23.3398 7.02344 23.5742 6.6875C23.8125 6.35156 24 6.06445 24.1367 5.82617H25.7363V5.94922C25.5332 6.1875 25.2285 6.49609 24.8223 6.875C24.4199 7.25 24.0801 7.54102 23.8027 7.74805H22.8887ZM29.8262 17V8.43359H31.2266V17H29.8262Z" fill="white"/>
</svg>
