<svg width="24" height="23" viewBox="0 0 24 23" fill="none" xmlns="http://www.w3.org/2000/svg">
<path d="M4.55134 16.7901V20.903L8.80058 19.8869L12 22.9836L15.1994 19.8869L19.4487 20.903V16.7901L23.7479 15.7256L21.5983 11.6127L23.7479 7.49976L19.4487 6.43525V2.32234L15.1994 3.33847L12 0.241699L8.80058 3.33847L4.55134 2.32234V6.43525L0.252121 7.49976L2.40173 11.6127L0.252121 15.7256L4.55134 16.7901ZM4.30139 10.6933L3.35156 8.80621L5.05125 8.41912C5.55116 8.32234 5.94276 8.08847 6.22604 7.7175C6.50932 7.34654 6.65097 6.91912 6.65097 6.43525V4.98363L8.25068 5.41912H8.80058C9.36714 5.41912 9.86705 5.20944 10.3003 4.79009L12 3.14492L13.6997 4.79009C14.1329 5.20944 14.6329 5.41912 15.1994 5.41912C15.3994 5.41912 15.5827 5.38686 15.7493 5.32234L17.349 4.98363V6.43525C17.349 6.91912 17.4907 7.34654 17.774 7.7175C18.0572 8.08847 18.4488 8.32234 18.9487 8.41912L20.6484 8.80621L19.6986 10.6933C19.3653 11.3062 19.3653 11.9191 19.6986 12.532L20.6484 14.4191L18.9487 14.8062C18.4488 14.903 18.0572 15.1369 17.774 15.5078C17.4907 15.8788 17.349 16.3062 17.349 16.7901V18.2417L15.7493 17.8062H15.1994C14.6329 17.8062 14.1329 18.0159 13.6997 18.4352L12 20.0804L10.3003 18.4352C9.86705 18.0159 9.36714 17.8062 8.80058 17.8062C8.60061 17.8062 8.41731 17.8385 8.25068 17.903L6.65097 18.2417V16.7901C6.65097 16.3062 6.50932 15.8788 6.22604 15.5078C5.94276 15.1369 5.55116 14.903 5.05125 14.8062L3.35156 14.4191L4.30139 12.532C4.63466 11.9191 4.63466 11.3062 4.30139 10.6933ZM10.9502 15.1449L15.9493 10.2578C16.4159 9.80621 16.4159 9.32234 15.9493 8.80621C15.4494 8.38686 14.9495 8.38686 14.4496 8.80621L10.9502 12.2417L9.55044 10.8869C9.05053 10.4675 8.55062 10.4675 8.05071 10.8869C7.61746 11.3707 7.61746 11.8546 8.05071 12.3385L10.9502 15.1449Z" fill="#F7941E"/>
</svg>
