<svg width="30" height="16" viewBox="0 0 30 16" fill="none" xmlns="http://www.w3.org/2000/svg">
<path d="M20.3333 0L24.3333 5.33333H27C28.48 5.33333 29.6667 6.52 29.6667 8V12H27C27 13.0609 26.5786 14.0783 25.8284 14.8284C25.0783 15.5786 24.0609 16 23 16C21.9391 16 20.9217 15.5786 20.1716 14.8284C19.4214 14.0783 19 13.0609 19 12H11C11 13.0609 10.5786 14.0783 9.82844 14.8284C9.07829 15.5786 8.06088 16 7.00001 16C5.93914 16 4.92173 15.5786 4.17158 14.8284C3.42144 14.0783 3.00001 13.0609 3.00001 12H0.333344V8C0.333344 6.52 1.52001 5.33333 3.00001 5.33333L7.00001 0H20.3333ZM13 2H8.00001L5.48001 5.33333H13V2ZM15 2V5.33333H21.8533L19.3333 2H15ZM7.00001 10C6.46958 10 5.96087 10.2107 5.5858 10.5858C5.21072 10.9609 5.00001 11.4696 5.00001 12C5.00001 12.5304 5.21072 13.0391 5.5858 13.4142C5.96087 13.7893 6.46958 14 7.00001 14C7.53044 14 8.03915 13.7893 8.41422 13.4142C8.7893 13.0391 9.00001 12.5304 9.00001 12C9.00001 11.4696 8.7893 10.9609 8.41422 10.5858C8.03915 10.2107 7.53044 10 7.00001 10ZM23 10C22.4696 10 21.9609 10.2107 21.5858 10.5858C21.2107 10.9609 21 11.4696 21 12C21 12.5304 21.2107 13.0391 21.5858 13.4142C21.9609 13.7893 22.4696 14 23 14C23.5304 14 24.0391 13.7893 24.4142 13.4142C24.7893 13.0391 25 12.5304 25 12C25 11.4696 24.7893 10.9609 24.4142 10.5858C24.0391 10.2107 23.5304 10 23 10Z" fill="white"/>
</svg>
